<svg width="162" height="163" viewBox="0 0 162 163" fill="none" xmlns="http://www.w3.org/2000/svg">
<g clip-path="url(#clip0_1979_167)">
<path d="M81 162.168C125.459 162.168 161.5 126.127 161.5 81.668C161.5 37.209 125.459 1.16797 81 1.16797C36.5411 1.16797 0.5 37.209 0.5 81.668C0.5 126.127 36.5411 162.168 81 162.168Z" fill="#FBBB00" stroke="#1D1D1B" stroke-miterlimit="10"/>
<path d="M81 150.168C118.832 150.168 149.5 119.499 149.5 81.668C149.5 43.8365 118.832 13.168 81 13.168C43.1685 13.168 12.5 43.8365 12.5 81.668C12.5 119.499 43.1685 150.168 81 150.168Z" fill="white" stroke="#1D1D1B" stroke-miterlimit="10"/>
<path d="M89.7398 27.5369C89.7398 22.7099 85.8267 18.7969 80.9998 18.7969C76.1728 18.7969 72.2598 22.7099 72.2598 27.5369V100.127C72.2598 104.954 76.1728 108.867 80.9998 108.867C85.8267 108.867 89.7398 104.954 89.7398 100.127V27.5369Z" fill="#FBBB00" stroke="#1D1D1B" stroke-miterlimit="10"/>
<path d="M81.0001 130.649C85.7884 130.649 89.6701 126.767 89.6701 121.979C89.6701 117.19 85.7884 113.309 81.0001 113.309C76.2118 113.309 72.3301 117.19 72.3301 121.979C72.3301 126.767 76.2118 130.649 81.0001 130.649Z" fill="#FBBB00" stroke="#1D1D1B" stroke-miterlimit="10"/>
</g>
<defs>
<clipPath id="clip0_1979_167">
<rect width="162" height="162" fill="white" transform="translate(0 0.667969)"/>
</clipPath>
</defs>
</svg>
