<svg width="69" height="69" viewBox="0 0 69 69" fill="none" xmlns="http://www.w3.org/2000/svg">
<path d="M62.4814 36.0231C62.4475 45.1812 58.1624 54.0009 50.8561 59.5823C43.4617 65.2298 33.6375 67.1128 24.6758 64.5902C16.0208 62.154 8.72131 55.7113 5.28675 47.4009C1.71833 38.7639 2.45878 28.7312 7.28276 20.727C11.9305 13.0155 20.128 7.59813 29.1135 6.55594C30.3233 6.41551 31.5399 6.34953 32.7581 6.34615C32.2498 5.83859 31.7415 5.33103 31.2332 4.82347C31.2332 8.33409 31.2332 11.843 31.2332 15.3536C31.2332 20.952 31.2332 26.5521 31.2332 32.1504C31.2332 33.4413 31.2332 34.7322 31.2332 36.0231C31.2332 36.8471 31.9313 37.5458 32.7581 37.5458C36.274 37.5458 39.7882 37.5458 43.3041 37.5458C48.9109 37.5458 54.5194 37.5458 60.1262 37.5458C61.419 37.5458 62.7119 37.5458 64.0047 37.5458C65.9668 37.5458 65.9702 34.5004 64.0047 34.5004C60.4888 34.5004 56.9746 34.5004 53.4587 34.5004C47.8519 34.5004 42.2434 34.5004 36.6366 34.5004C35.3438 34.5004 34.051 34.5004 32.7581 34.5004C33.2665 35.008 33.7748 35.5156 34.2831 36.0231C34.2831 32.5125 34.2831 29.0036 34.2831 25.493C34.2831 19.8946 34.2831 14.2945 34.2831 8.69615C34.2831 7.40525 34.2831 6.11436 34.2831 4.82347C34.2831 4.00292 33.585 3.29741 32.7581 3.30079C22.5256 3.33971 12.8624 8.15644 6.64905 16.2622C0.472938 24.3205 -1.54849 35.1434 1.20831 44.9054C3.94308 54.5913 11.1562 62.5279 20.45 66.3481C29.8539 70.214 40.9167 69.319 49.6192 64.0894C58.3081 58.8667 64.0996 49.8101 65.3077 39.7774C65.4585 38.5305 65.5263 37.2785 65.5313 36.0231C65.5381 34.0639 62.4882 34.0606 62.4814 36.0231Z" fill="#04DBA2"/>
<path d="M68.8634 30.7919C68.8126 17.9676 60.6794 6.33773 48.6356 1.87798C45.2519 0.62431 41.6326 0.0152389 38.0269 1.21506e-05C37.2017 -0.00337158 36.502 0.700444 36.502 1.52269C36.502 4.82182 36.502 8.12265 36.502 11.4218C36.502 16.6581 36.502 21.8944 36.502 27.129C36.502 28.3489 36.502 29.5704 36.502 30.7902C36.502 31.6142 37.2 32.3129 38.0269 32.3129C41.331 32.3129 44.6368 32.3129 47.9409 32.3129C53.1851 32.3129 58.4293 32.3129 63.6718 32.3129C64.8934 32.3129 66.1168 32.3129 67.3385 32.3129C69.3006 32.3129 69.304 29.2676 67.3385 29.2676C64.0344 29.2676 60.7286 29.2676 57.4245 29.2676C52.1803 29.2676 46.9361 29.2676 41.6936 29.2676C40.4719 29.2676 39.2486 29.2676 38.0269 29.2676C38.5352 29.7751 39.0436 30.2827 39.5519 30.7902C39.5519 27.4911 39.5519 24.1903 39.5519 20.8911C39.5519 15.6548 39.5519 10.4185 39.5519 5.18388C39.5519 3.96405 39.5519 2.74252 39.5519 1.52269C39.0436 2.03025 38.5352 2.53781 38.0269 3.04537C49.4811 3.09105 60.1152 10.317 64.0818 21.1128C65.2255 24.2241 65.7999 27.4793 65.8135 30.7919C65.822 32.7511 68.8719 32.7545 68.8634 30.7919Z" fill="#04DBA2"/>
</svg>
