<svg width="135" height="64" viewBox="0 0 135 64" fill="none" xmlns="http://www.w3.org/2000/svg">
<path fill-rule="evenodd" clip-rule="evenodd" d="M54.2138 19.8029C54.2138 14.6245 50.0098 10.4194 44.8308 10.4194H26.0647C20.8856 10.4194 16.6816 14.6245 16.6816 19.8029V39.4319C16.6816 44.6114 20.8856 48.8154 26.0647 48.8154H44.8308C50.0098 48.8154 54.2138 44.6114 54.2138 39.4319V19.8029Z" fill="#344050" fill-opacity="0.9"/>
<path fill-rule="evenodd" clip-rule="evenodd" d="M38.6684 15.4976C36.7617 13.5888 33.6649 13.5867 31.7562 15.4932L24.8406 22.4011C22.9326 24.307 22.9305 27.4044 24.8371 29.3132L31.9929 36.477C33.8995 38.3858 36.997 38.3872 38.905 36.4813L45.8206 29.5735C47.7293 27.6669 47.7307 24.5701 45.8241 22.6614L38.6684 15.4976Z" fill="white"/>
<path d="M59.8085 28.8123L59.8124 27.1642L67.5773 27.183L67.5734 28.8311L64.6788 28.8241L64.66 36.6305L62.6841 36.6258L62.703 28.8193L59.8085 28.8123ZM69.8532 36.777C69.4007 36.7759 68.9978 36.6964 68.6442 36.5386C68.2907 36.3777 68.0112 36.1416 67.8057 35.8303C67.6034 35.5158 67.5027 35.1247 67.5039 34.6569C67.5048 34.263 67.5779 33.9323 67.7232 33.6649C67.8685 33.3975 68.066 33.1826 68.3157 33.02C68.5654 32.8575 68.8488 32.7351 69.166 32.6528C69.4863 32.5705 69.8219 32.5128 70.1728 32.4798C70.5854 32.4377 70.9178 32.3985 71.1703 32.3622C71.4228 32.3228 71.606 32.2647 71.7201 32.1881C71.8341 32.1114 71.8913 31.9977 71.8917 31.8469L71.8918 31.8192C71.8925 31.5268 71.8007 31.3004 71.6164 31.1399C71.4352 30.9794 71.1769 30.8988 70.8414 30.8979C70.4875 30.8971 70.2057 30.9749 69.9961 31.1313C69.7864 31.2847 69.6475 31.4783 69.5792 31.712L67.7606 31.5599C67.854 31.1292 68.0365 30.7573 68.3081 30.444C68.5797 30.1277 68.9296 29.8854 69.3578 29.7172C69.7891 29.5459 70.2879 29.4609 70.8542 29.4623C71.2481 29.4632 71.625 29.5103 71.9849 29.6035C72.3478 29.6967 72.6691 29.8406 72.9487 30.0351C73.2313 30.2297 73.4539 30.4796 73.6162 30.7846C73.7786 31.0866 73.8593 31.4485 73.8583 31.8701L73.8467 36.6527L71.9817 36.6482L71.984 35.6649L71.9286 35.6648C71.8142 35.8861 71.6614 36.0812 71.4702 36.25C71.279 36.4157 71.0494 36.546 70.7814 36.6407C70.5134 36.7324 70.204 36.7778 69.8532 36.777ZM70.4196 35.4211C70.7089 35.4218 70.9645 35.3655 71.1864 35.2521C71.4083 35.1357 71.5825 34.9792 71.7092 34.7825C71.8358 34.5859 71.8995 34.3629 71.9001 34.1136L71.9019 33.3611C71.8403 33.401 71.7555 33.4377 71.6477 33.4713C71.543 33.5018 71.4245 33.5308 71.292 33.5581C71.1596 33.5824 71.0273 33.6052 70.8949 33.6264C70.7625 33.6446 70.6424 33.6612 70.5347 33.6763C70.3038 33.7096 70.102 33.763 69.9295 33.8364C69.757 33.9099 69.6229 34.0096 69.5272 34.1355C69.4314 34.2584 69.3834 34.4122 69.3829 34.5968C69.3823 34.8646 69.4787 35.0695 69.6723 35.2115C69.8689 35.3505 70.118 35.4204 70.4196 35.4211ZM81.2846 31.6018L79.4839 31.7083C79.4535 31.5543 79.3876 31.4157 79.2864 31.2923C79.1851 31.1659 79.0515 31.0655 78.8855 30.9913C78.7225 30.9139 78.5272 30.875 78.2994 30.8744C77.9948 30.8737 77.7376 30.9377 77.528 31.0665C77.3184 31.1921 77.2134 31.3612 77.2129 31.5735C77.2125 31.7428 77.2798 31.8861 77.415 32.0033C77.5501 32.1206 77.7822 32.215 78.1114 32.2866L79.3941 32.5483C80.0832 32.6915 80.5966 32.9205 80.9344 33.2352C81.2721 33.55 81.4404 33.9628 81.4392 34.4737C81.4381 34.9384 81.3001 35.3458 81.0254 35.696C80.7537 36.0462 80.3806 36.3192 79.9062 36.5151C79.4348 36.7078 78.8914 36.8034 78.2759 36.802C77.3372 36.7997 76.5898 36.6024 76.0337 36.2102C75.4807 35.815 75.1573 35.2787 75.0635 34.6014L76.998 34.5045C77.0558 34.7908 77.1969 35.0097 77.4212 35.161C77.6455 35.3093 77.9331 35.3839 78.2839 35.3847C78.6286 35.3855 78.9058 35.32 79.1154 35.1882C79.328 35.0533 79.4362 34.8797 79.4398 34.6673C79.4371 34.4888 79.3621 34.3425 79.2146 34.2282C79.0672 34.1109 78.8397 34.0211 78.532 33.9588L77.3047 33.7112C76.6125 33.571 76.0976 33.3297 75.7599 32.9873C75.4252 32.6448 75.2586 32.2089 75.2598 31.6796C75.2609 31.2241 75.385 30.832 75.632 30.5033C75.8821 30.1746 76.232 29.9215 76.6818 29.7441C77.1346 29.5667 77.6642 29.4787 78.2705 29.4802C79.1661 29.4824 79.8704 29.6733 80.3835 30.0531C80.8996 30.4329 81.2 30.9492 81.2846 31.6018ZM84.4591 34.6379L84.4694 32.2789L84.7557 32.2796L87.0335 29.5937L89.2909 29.5992L86.2308 33.1557L85.7646 33.1546L84.4591 34.6379ZM82.6722 36.6741L82.6951 27.2196L84.6617 27.2243L84.6389 36.6788L82.6722 36.6741ZM87.104 36.6848L85.0249 33.5913L86.3393 32.205L89.4077 36.6904L87.104 36.6848ZM94.0274 29.6106L94.0238 31.0879L89.7536 31.0776L89.7572 29.6003L94.0274 29.6106ZM90.7308 27.9038L92.6974 27.9085L92.6814 34.5193C92.6809 34.7009 92.7083 34.8425 92.7635 34.9442C92.8186 35.0428 92.8954 35.1123 92.9938 35.1525C93.0952 35.1928 93.2121 35.2131 93.3445 35.2134C93.4368 35.2136 93.5292 35.2061 93.6215 35.191C93.7139 35.1727 93.7847 35.1591 93.834 35.1499L94.1397 36.6141C94.0412 36.6446 93.9026 36.6797 93.724 36.7193C93.5454 36.7619 93.3284 36.7876 93.0729 36.7962C92.5989 36.8135 92.1836 36.7494 91.8269 36.6039C91.4733 36.4584 91.1984 36.2331 91.0022 35.9279C90.806 35.6227 90.7099 35.2378 90.7141 34.7731L90.7308 27.9038ZM98.4464 36.8507C97.717 36.849 97.0895 36.6997 96.5639 36.403C96.0414 36.1032 95.6393 35.6806 95.3575 35.1352C95.0756 34.5867 94.9356 33.9385 94.9374 33.1906C94.9392 32.4612 95.0823 31.8214 95.3668 31.2712C95.6513 30.721 96.0509 30.2926 96.5656 29.9861C97.0834 29.6796 97.69 29.5271 98.3856 29.5288C98.8534 29.53 99.2887 29.6064 99.6915 29.7582C100.097 29.9069 100.451 30.1309 100.752 30.4302C101.056 30.7294 101.292 31.1055 101.46 31.5583C101.628 32.008 101.711 32.5345 101.71 33.1377L101.709 33.6779L95.7211 33.6634L95.7241 32.4446L99.8604 32.4546C99.8611 32.1715 99.8001 31.9205 99.6776 31.7017C99.555 31.4829 99.3846 31.3117 99.1664 31.188C98.9512 31.0613 98.7006 30.9976 98.4144 30.9969C98.1158 30.9962 97.851 31.0648 97.6198 31.2028C97.3917 31.3376 97.2128 31.5203 97.083 31.7508C96.9532 31.9783 96.8864 32.232 96.8826 32.5121L96.8798 33.6708C96.879 34.0217 96.9429 34.325 97.0715 34.5807C97.2032 34.8365 97.389 35.0339 97.6287 35.173C97.8684 35.312 98.1529 35.382 98.4822 35.3828C98.7007 35.3833 98.9009 35.353 99.0826 35.2919C99.2643 35.2308 99.42 35.1388 99.5495 35.016C99.6791 34.8932 99.7779 34.7427 99.8461 34.5643L101.665 34.6888C101.571 35.1256 101.381 35.5067 101.094 35.8323C100.81 36.1547 100.443 36.4062 99.9935 36.5867C99.5468 36.7641 99.0311 36.8521 98.4464 36.8507ZM104.961 32.6285L104.951 36.728L102.985 36.7232L103.002 29.6323L104.876 29.6369L104.873 30.8879L104.956 30.8881C105.114 30.4761 105.378 30.1505 105.748 29.9113C106.118 29.6691 106.566 29.5486 107.092 29.5499C107.585 29.5511 108.014 29.6598 108.379 29.8762C108.745 30.0925 109.029 30.4009 109.231 30.8015C109.433 31.199 109.534 31.6732 109.533 32.2241L109.522 36.739L107.555 36.7343L107.565 32.5702C107.569 32.1363 107.459 31.7975 107.235 31.5538C107.011 31.307 106.702 31.1832 106.308 31.1822C106.043 31.1816 105.809 31.238 105.606 31.3513C105.406 31.4647 105.248 31.6305 105.134 31.8488C105.023 32.0639 104.965 32.3239 104.961 32.6285ZM113.684 36.8645C113.146 36.8632 112.658 36.7235 112.222 36.4455C111.789 36.1644 111.445 35.7527 111.191 35.2104C110.94 34.665 110.815 33.9969 110.817 33.2059C110.819 32.3934 110.951 31.7182 111.214 31.1802C111.477 30.6392 111.826 30.2353 112.261 29.9686C112.698 29.6989 113.177 29.5646 113.697 29.5659C114.094 29.5668 114.425 29.6353 114.689 29.7714C114.957 29.9044 115.172 30.0711 115.334 30.2715C115.5 30.4689 115.626 30.6631 115.712 30.8541L115.772 30.8543L115.78 27.2996L117.742 27.3043L117.719 36.7588L115.78 36.7542L115.783 35.6185L115.7 35.6183C115.607 35.8151 115.476 36.0102 115.306 36.2036C115.14 36.3941 114.922 36.552 114.654 36.6776C114.389 36.8031 114.066 36.8654 113.684 36.8645ZM114.311 35.301C114.628 35.3018 114.896 35.2163 115.115 35.0444C115.337 34.8696 115.507 34.6253 115.625 34.3117C115.745 33.998 115.806 33.6304 115.807 33.2088C115.808 32.7871 115.751 32.4207 115.635 32.1096C115.518 31.7985 115.35 31.558 115.129 31.3882C114.907 31.2184 114.638 31.1331 114.321 31.1324C113.998 31.1316 113.726 31.2186 113.504 31.3935C113.282 31.5684 113.113 31.8111 112.999 32.1217C112.884 32.4323 112.826 32.7922 112.825 33.2015C112.824 33.614 112.88 33.9788 112.993 34.2961C113.11 34.6103 113.277 34.8569 113.495 35.0359C113.716 35.2119 113.988 35.3002 114.311 35.301ZM122.567 36.9091C121.838 36.9073 121.21 36.7581 120.685 36.4613C120.162 36.1615 119.76 35.7389 119.478 35.1935C119.197 34.645 119.057 33.9968 119.058 33.2489C119.06 32.5195 119.203 31.8797 119.488 31.3295C119.772 30.7793 120.172 30.3509 120.687 30.0444C121.204 29.7379 121.811 29.5855 122.507 29.5872C122.974 29.5883 123.41 29.6648 123.813 29.8165C124.218 29.9652 124.572 30.1892 124.873 30.4885C125.177 30.7878 125.413 31.1638 125.581 31.6166C125.749 32.0664 125.832 32.5928 125.831 33.1961L125.83 33.7362L119.842 33.7217L119.845 32.503L123.981 32.513C123.982 32.2298 123.921 31.9788 123.799 31.76C123.676 31.5412 123.506 31.37 123.287 31.2464C123.072 31.1197 122.822 31.056 122.535 31.0553C122.237 31.0546 121.972 31.1232 121.741 31.2611C121.513 31.396 121.334 31.5787 121.204 31.8092C121.074 32.0366 121.007 32.2903 121.004 32.5704L121.001 33.7291C121 34.08 121.064 34.3833 121.193 34.639C121.324 34.8948 121.51 35.0922 121.75 35.2313C121.989 35.3704 122.274 35.4403 122.603 35.4411C122.822 35.4416 123.022 35.4113 123.204 35.3502C123.385 35.2891 123.541 35.1972 123.671 35.0744C123.8 34.9516 123.899 34.801 123.967 34.6227L125.786 34.7471C125.692 35.1839 125.502 35.5651 125.215 35.8906C124.931 36.2131 124.564 36.4646 124.115 36.6451C123.668 36.8225 123.152 36.9105 122.567 36.9091ZM127.106 36.7815L127.123 29.6907L129.029 29.6953L129.026 30.9325L129.1 30.9327C129.231 30.4929 129.448 30.161 129.754 29.9371C130.059 29.7101 130.41 29.597 130.807 29.598C130.906 29.5982 131.012 29.6047 131.126 29.6172C131.239 29.6298 131.339 29.647 131.425 29.6687L131.421 31.4138C131.329 31.3858 131.201 31.3609 131.038 31.339C130.875 31.317 130.726 31.3059 130.591 31.3056C130.301 31.3049 130.043 31.3673 129.815 31.493C129.59 31.6155 129.411 31.7875 129.278 32.0087C129.148 32.23 129.083 32.4853 129.082 32.7746L129.072 36.7863L127.106 36.7815Z" fill="white"/>
<path d="M51.9043 19.6223C51.9043 22.5077 49.5053 24.8467 46.5459 24.8467C43.5865 24.8467 41.1875 22.5077 41.1875 19.6223C41.1875 16.737 43.5865 14.3979 46.5459 14.3979C49.5053 14.3979 51.9043 16.737 51.9043 19.6223Z" fill="white"/>
<path d="M29.9414 26.3075L34.5382 31.0296L46.988 19.0845" stroke="#04DBA2" stroke-width="5.52428" stroke-miterlimit="1.5" stroke-linecap="round" stroke-linejoin="round"/>
</svg>
