<svg width="38" height="68" viewBox="0 0 38 68" fill="none" xmlns="http://www.w3.org/2000/svg">
<path d="M3.07019 55.3266C3.11454 50.4711 6.21024 45.9672 10.8615 44.4204C12.4392 43.8963 14.0066 43.8092 15.6457 43.8092C17.3582 43.8092 19.0706 43.8092 20.7831 43.8092C22.1066 43.8092 23.4728 43.7307 24.7896 43.886C27.1177 44.1609 29.3794 45.2109 31.1021 46.797C32.8879 48.4411 34.1074 50.5616 34.6276 52.9347C34.9073 54.2135 34.8732 55.5076 34.8732 56.8068C34.8732 59.9978 34.8732 63.1887 34.8732 66.3796C35.3849 65.8675 35.8966 65.3553 36.4083 64.8431C32.4683 64.8431 28.5283 64.8431 24.5883 64.8431C18.3423 64.8431 12.0963 64.8431 5.84865 64.8431C4.4091 64.8431 2.97126 64.8431 1.53172 64.8431C2.04341 65.3553 2.55509 65.8675 3.06678 66.3796C3.07019 62.6953 3.07019 59.011 3.07019 55.3266C3.07019 53.3496 7.08049e-05 53.3462 7.08049e-05 55.3266C7.08049e-05 59.011 7.08049e-05 62.6953 7.08049e-05 66.3796C7.08049e-05 67.2111 0.702787 67.9162 1.53513 67.9162C5.47512 67.9162 9.4151 67.9162 13.3551 67.9162C19.6011 67.9162 25.8471 67.9162 32.0947 67.9162C33.5343 67.9162 34.9721 67.9162 36.4117 67.9162C37.2423 67.9162 37.9467 67.2128 37.9467 66.3796C37.9467 63.3355 37.9467 60.2914 37.9467 57.2473C37.9467 55.7517 37.9621 54.2852 37.7216 52.7998C37.2696 50.0135 35.9068 47.3843 33.988 45.3287C32.1033 43.309 29.5943 41.8322 26.9131 41.1697C25.2006 40.7463 23.4814 40.7344 21.7348 40.7344C19.8723 40.7344 18.0097 40.7344 16.1472 40.7344C14.3853 40.7344 12.649 40.7532 10.9246 41.1971C4.5285 42.8429 0.0597676 48.7638 7.08049e-05 55.3266C-0.0169854 57.3037 3.05313 57.3054 3.07019 55.3266Z" fill="#04DBA2"/>
<path d="M18.8373 3.07487C25.3545 3.11926 31.4316 7.22701 33.6489 13.4245C35.9157 19.7568 33.944 26.8814 28.7452 31.1428C23.6488 35.3205 16.2192 35.7439 10.6213 32.3294C5.04563 28.9284 2.04885 22.1675 3.37242 15.7464C4.8836 8.42212 11.3803 3.12609 18.8373 3.07487C20.8124 3.06121 20.8158 -0.0119163 18.8373 0.00174206C10.9232 0.0546682 3.82099 5.06045 1.10223 12.4991C-1.56195 19.7927 0.769637 28.377 6.75637 33.3145C12.8966 38.3783 21.7624 39.1517 28.6003 34.9825C35.3358 30.8747 38.7913 22.888 37.3058 15.1557C35.624 6.4041 27.6605 0.0597901 18.8356 3.4767e-05C16.8605 -0.0119163 16.8588 3.06121 18.8373 3.07487Z" fill="#04DBA2"/>
</svg>
