<svg width="40" height="37" viewBox="0 0 40 37" fill="none" xmlns="http://www.w3.org/2000/svg">
<path d="M25.4629 21.7925C25.9282 22.2062 26.3935 22.62 26.8588 23.0337L26.8601 23.0348L26.8608 23.0354C27.7113 23.7916 28.5619 24.5479 29.4125 25.3044C30.6756 26.427 31.9383 27.5498 33.201 28.6726C34.4636 29.7953 35.7261 30.9179 36.9889 32.0403C37.0684 32.1108 37.1526 32.1788 37.2529 32.2599C37.3326 32.3242 37.4223 32.3967 37.528 32.4852C37.7417 32.6642 37.9863 32.8822 38.1913 33.1265C38.3744 33.3448 38.5601 33.6238 38.6408 33.9527C38.8629 33.9825 39.067 34.0657 39.2431 34.1808C39.2388 33.6249 39.0174 33.0825 38.5715 32.6612C38.4732 32.5685 38.3786 32.4861 38.275 32.3957C38.2151 32.3435 38.1521 32.2886 38.0835 32.2275C37.5819 31.7813 37.0801 31.3353 36.5781 30.8891L36.5748 30.8862C36.074 30.4411 35.573 29.9959 35.0723 29.5505L25.4629 21.7925ZM25.4629 21.7925L25.6229 21.6131L25.8538 21.3541C26.1728 21.6378 26.4919 21.9216 26.8112 22.2054C28.1881 23.4297 29.5649 24.6538 30.9418 25.8779L30.9513 25.8864C32.3249 27.1076 33.6986 28.3289 35.0722 29.5504L25.4629 21.7925ZM37.0537 35.8223C36.8436 35.8111 36.6505 35.7531 36.4813 35.6766C36.2276 35.5617 36.0038 35.3942 35.8198 35.2403C35.7011 35.141 35.574 35.025 35.4633 34.924C35.4102 34.8756 35.3609 34.8307 35.3181 34.7926C34.794 34.3269 34.2698 33.8608 33.7457 33.3949L33.7396 33.3894C33.2175 32.9253 32.6955 32.4612 32.1735 31.9974L32.1735 31.9973C30.8508 30.8215 29.5282 29.6455 28.2056 28.4695L28.189 28.4547L28.178 28.4449C26.8535 27.2673 25.5291 26.0897 24.2047 24.9123L37.0537 35.8223ZM37.0537 35.8223C37.0988 36.0181 37.1882 36.2104 37.3313 36.3881C36.7365 36.4489 36.1105 36.2609 35.6031 35.8282C35.4504 35.6978 35.305 35.5668 35.1532 35.4299C35.0783 35.3624 35.0019 35.2936 34.9223 35.2227L34.922 35.2224C33.654 34.0948 32.386 32.9675 31.118 31.8402L31.1132 31.836C29.8469 30.7101 28.5805 29.5842 27.3142 28.4581L27.314 28.458C26.3969 27.643 25.48 26.8278 24.5631 26.0125L24.5624 26.0118L24.5615 26.0111C24.0297 25.5382 23.4978 25.0653 22.9659 24.5924L23.1247 24.4143L23.3547 24.1565C23.6379 24.4084 23.9211 24.6603 24.2046 24.9122L37.0537 35.8223ZM25.0212 20.6137H25.0194H25.0169H25.0144H25.012H25.0095H25.007H25.0046H25.0021H24.9996H24.9971H24.9947H24.9922H24.9897H24.9873H24.9848H24.9823H24.9798H24.9774H24.9749H24.9724H24.9699H24.9675H24.965H24.9625H24.9601H24.9576H24.9551H24.9526H24.9502H24.9477H24.9452H24.9428H24.9403H24.9378H24.9353H24.9329H24.9304H24.9279H24.9254H24.923H24.9205H24.918H24.9156H24.9131H24.9106H24.9081H24.9057H24.9032H24.9007H24.8982H24.8958H24.8933H24.8908H24.8884H24.8859H24.8834H24.8809H24.8785H24.876H24.8735H24.871H24.8686H24.8661H24.8636H24.8612H24.8587H24.8562H24.8537H24.8513H24.8488H24.8463H24.8438H24.8414H24.8389H24.8364H24.834H24.8315H24.829H24.8265H24.8241H24.8216H24.8191H24.8166H24.8142H24.8117H24.8092H24.8067H24.8043H24.8018H24.7993H24.7969H24.7944H24.7919H24.7894H24.787H24.7845H24.782H24.7795H24.7771H24.7746H24.7721H24.7697H24.7672H24.7647H24.7622H24.7598H24.7573H24.7548H24.7523H24.7499H24.7474H24.7449H24.7424H24.74H24.7375H24.735H24.7326H24.7301H24.7276H24.7251H24.7227H24.7202H24.7177H24.7152H24.7128H24.7103H24.7078H24.7053H24.7029H24.7004H24.6979H24.6955H24.693H24.6905H24.688H24.6856H24.6831H24.6806H24.6781H24.6757H24.6732H24.6707H24.6682H24.6658H24.6633H24.6608H24.6584H24.6559H24.6534H24.6509H24.6485H24.646H24.6435H24.641H24.6386H24.6361H24.6336H24.6311H24.6287H24.6262H24.6237H24.6212H24.6188H24.6163H24.6138H24.6114H24.6089H24.6064H24.6039H24.6015H24.599H24.5965H24.594H24.5916H24.5891H24.5866H24.5841H24.5817H24.5792H24.5767H24.5742H24.5718H24.5693H24.5668H24.5644H24.5619H24.5594H24.5569H24.5545H24.552H24.5495H24.547H24.5446H24.5421H24.5396H24.5371H24.5347H24.5322H24.5297H24.5273H24.5248H24.5223H24.5198H24.5174H24.5149H24.5124H24.5099H24.5075H24.505H24.5025H24.5H24.4976H24.4951H24.4926H24.4901H24.4877H24.4852H24.4827H24.4803H24.4778H24.4753H24.4728H24.4704H24.4679H24.4654H24.4629H24.4605H24.458H24.4555H24.453H24.4506H24.4481H24.4456H24.4432H24.4407H24.4382H24.4357H24.4333H24.4308H24.4283H24.4258H24.4234H24.4209H24.4184H24.4159H24.4135H24.411H24.4085H24.406H24.4036H24.4011H24.3986H24.3962H24.3937H24.3912H24.3887H24.3863H24.3838H24.3813H24.3788H24.3764H24.3739H24.3714H24.3689H24.3665H24.364H24.3615H24.3591H24.3566H24.3541H24.3516H24.3492H24.3467H24.3442H24.3417H24.3393H24.3368H24.3343H24.3318H24.3294H24.3269H24.3244H24.322H24.3195H24.317H24.3145H24.3121H24.3096H24.3071H24.3046H24.3022H24.2997H24.2972H24.2947H24.2923H24.2898H24.2873H24.2849H24.2824H24.2799H24.2774H24.275H24.2725H24.27H24.2675H24.2651H24.2626H24.2601H24.2577H24.2552H24.2527H24.2502H24.2478H24.2453H24.2428H24.2403H24.2379H24.2354H24.2329H24.2304H24.228H24.2255H24.223H24.2206H24.2181H24.2156H24.2131H24.2107H24.2082H24.2057H24.2032H24.2008H24.1983H24.1958H24.1934H24.1909H24.1884H24.1859H24.1835H24.181H24.1785H24.176H24.1736H24.1711H24.1686H24.1662H24.1637H24.1612H24.1587H24.1563H24.1538H24.1513H24.1489H24.1464H24.1439H24.1414H24.139H24.1365H24.134H24.1315H24.1291H24.1266H24.1241H24.1217H24.1209L24.3575 20.3484C24.3576 20.3484 24.3576 20.3483 24.3577 20.3483C24.3888 20.3135 24.4355 20.2885 24.5173 20.2916C24.6081 20.2951 24.7078 20.3351 24.7774 20.397L24.7775 20.3971C24.8587 20.4693 24.94 20.5415 25.0212 20.6137ZM38.6642 35.7188C38.6459 35.7327 38.6045 35.7533 38.5245 35.7509C38.4173 35.7477 38.3306 35.7031 38.2947 35.6672C38.235 35.6077 38.2162 35.5476 38.2183 35.4817C38.2207 35.408 38.252 35.3118 38.3259 35.219C38.4002 35.1391 38.4478 35.1397 38.4684 35.1408C38.5093 35.143 38.581 35.1671 38.6534 35.2397C38.725 35.3115 38.7647 35.3988 38.7722 35.4723C38.7773 35.5228 38.77 35.5823 38.7203 35.6523C38.7106 35.6647 38.7008 35.677 38.6909 35.6893C38.6903 35.6899 38.6898 35.6905 38.6893 35.6911L38.6889 35.6915C38.6807 35.7006 38.6725 35.7097 38.6642 35.7188ZM22.0769 23.8003V23.8023C21.9882 23.7234 21.8996 23.6446 21.8109 23.5658C21.7761 23.5348 21.7514 23.4886 21.7545 23.4078C21.758 23.3179 21.7978 23.2187 21.8597 23.1492L21.8597 23.1492L22.0769 22.9057V22.9063V22.9088V22.9113V22.9138V22.9162V22.9187V22.9212V22.9236V22.9261V22.9286V22.931V22.9335V22.936V22.9384V22.9409V22.9434V22.9458V22.9483V22.9508V22.9532V22.9557V22.9582V22.9607V22.9631V22.9656V22.9681V22.9705V22.973V22.9755V22.9779V22.9804V22.9829V22.9853V22.9878V22.9903V22.9927V22.9952V22.9977V23.0002V23.0026V23.0051V23.0076V23.01V23.0125V23.015V23.0174V23.0199V23.0224V23.0248V23.0273V23.0298V23.0322V23.0347V23.0372V23.0397V23.0421V23.0446V23.0471V23.0495V23.052V23.0545V23.0569V23.0594V23.0619V23.0643V23.0668V23.0693V23.0718V23.0742V23.0767V23.0792V23.0816V23.0841V23.0866V23.089V23.0915V23.094V23.0964V23.0989V23.1014V23.1039V23.1063V23.1088V23.1113V23.1137V23.1162V23.1187V23.1211V23.1236V23.1261V23.1285V23.131V23.1335V23.136V23.1384V23.1409V23.1434V23.1458V23.1483V23.1508V23.1532V23.1557V23.1582V23.1607V23.1631V23.1656V23.1681V23.1705V23.173V23.1755V23.1779V23.1804V23.1829V23.1853V23.1878V23.1903V23.1928V23.1952V23.1977V23.2002V23.2026V23.2051V23.2076V23.21V23.2125V23.215V23.2175V23.2199V23.2224V23.2249V23.2273V23.2298V23.2323V23.2347V23.2372V23.2397V23.2422V23.2446V23.2471V23.2496V23.252V23.2545V23.257V23.2594V23.2619V23.2644V23.2668V23.2693V23.2718V23.2743V23.2767V23.2792V23.2817V23.2841V23.2866V23.2891V23.2915V23.294V23.2965V23.299V23.3014V23.3039V23.3064V23.3088V23.3113V23.3138V23.3162V23.3187V23.3212V23.3237V23.3261V23.3286V23.3311V23.3335V23.336V23.3385V23.3409V23.3434V23.3459V23.3484V23.3508V23.3533V23.3558V23.3582V23.3607V23.3632V23.3656V23.3681V23.3706V23.3731V23.3755V23.378V23.3805V23.3829V23.3854V23.3879V23.3903V23.3928V23.3953V23.3978V23.4002V23.4027V23.4052V23.4076V23.4101V23.4126V23.415V23.4175V23.42V23.4224V23.4249V23.4274V23.4299V23.4323V23.4348V23.4373V23.4397V23.4422V23.4447V23.4471V23.4496V23.4521V23.4546V23.457V23.4595V23.462V23.4644V23.4669V23.4694V23.4718V23.4743V23.4768V23.4793V23.4817V23.4842V23.4867V23.4891V23.4916V23.4941V23.4965V23.499V23.5015V23.504V23.5064V23.5089V23.5114V23.5138V23.5163V23.5188V23.5212V23.5237V23.5262V23.5287V23.5311V23.5336V23.5361V23.5385V23.541V23.5435V23.5459V23.5484V23.5509V23.5533V23.5558V23.5583V23.5608V23.5632V23.5657V23.5682V23.5706V23.5731V23.5756V23.578V23.5805V23.583V23.5855V23.5879V23.5904V23.5929V23.5953V23.5978V23.6003V23.6027V23.6052V23.6077V23.6102V23.6126V23.6151V23.6176V23.62V23.6225V23.625V23.6274V23.6299V23.6324V23.6348V23.6373V23.6398V23.6423V23.6447V23.6472V23.6497V23.6521V23.6546V23.6571V23.6595V23.662V23.6645V23.6669V23.6694V23.6719V23.6744V23.6768V23.6793V23.6818V23.6842V23.6867V23.6892V23.6916V23.6941V23.6966V23.699V23.7015V23.704V23.7065V23.7089V23.7114V23.7139V23.7163V23.7188V23.7213V23.7237V23.7262V23.7287V23.7311V23.7336V23.7361V23.7386V23.741V23.7435V23.746V23.7484V23.7509V23.7534V23.7558V23.7583V23.7608V23.7632V23.7657V23.7682V23.7706V23.7731V23.7756V23.7781V23.7805V23.783V23.7855V23.7879V23.7904V23.7929V23.7953V23.7978V23.8003ZM23.0755 22.3024L22.8186 22.0741L23.3295 21.5012L23.5104 21.6621C23.5961 21.7383 23.6817 21.8145 23.7674 21.8907L23.2567 22.4634C23.1963 22.4098 23.1359 22.3561 23.0755 22.3024Z" fill="#344050" stroke="#04DBA2" stroke-width="1.2"/>
<path d="M22.5048 13.3257C22.6144 16.5055 20.9699 19.6083 18.1836 21.256C15.0458 23.1129 10.9071 22.858 8.06999 20.5094L22.5048 13.3257ZM22.5048 13.3257C22.6394 13.324 22.7711 13.3041 22.8946 13.27C22.9132 13.2649 22.9317 13.2594 22.9503 13.2535C23.0761 17.0427 20.9281 20.6698 17.3498 22.1948L17.3497 22.1948C13.7575 23.7267 9.46296 22.8465 6.81741 19.9688L6.3757 20.3749L6.8174 19.9688C4.15745 17.0755 3.60472 12.7265 5.45313 9.26119C7.30084 5.79867 11.2422 3.88928 15.1202 4.47381L15.1203 4.47382C18.4541 4.97573 21.262 7.36571 22.4133 10.4811C22.3395 10.4885 22.2659 10.5019 22.193 10.5219L22.1911 10.5224C22.106 10.5461 22.0263 10.5757 21.9521 10.6107C20.6737 7.24438 17.4617 4.8422 13.725 4.82192L22.5048 13.3257ZM22.7966 11.838C22.7939 11.8236 22.7912 11.8092 22.7885 11.7948L22.7893 11.7947L22.7966 11.838ZM22.7966 11.838C22.8049 11.9129 22.7848 11.9586 22.7606 11.9923C22.7249 12.0421 22.659 12.0902 22.5755 12.1132C22.4906 12.1367 22.4332 12.1224 22.4118 12.1117C22.4116 12.1116 22.4114 12.1115 22.4111 12.1113C22.4055 12.1089 22.3764 12.0963 22.3579 12.0098C22.34 11.9105 22.3574 11.8286 22.3849 11.7767C22.4086 11.7322 22.4443 11.6978 22.5109 11.679C22.5489 11.6689 22.6265 11.6717 22.7035 11.7128C22.7777 11.7525 22.7878 11.7915 22.7886 11.7953L22.7966 11.838ZM5.37991 10.5399L5.37993 10.5399C6.65315 7.09457 10.0823 4.80116 13.7248 4.82192L5.37991 10.5399ZM5.37991 10.5399C4.06735 14.0924 5.15435 18.0962 8.06995 20.5094L5.37991 10.5399Z" fill="#344050" stroke="#04DBA2" stroke-width="1.2"/>
<path d="M14.5964 7.40772L14.5963 7.40767C14.4945 7.37651 14.4602 7.3292 14.4426 7.29066C14.4187 7.23833 14.4091 7.15719 14.4336 7.06804C14.4583 6.97835 14.5051 6.92408 14.5395 6.90149C14.5589 6.88875 14.6004 6.86546 14.7033 6.89692L14.8788 6.32319L14.7027 6.89674C16.4838 7.44353 18.0747 8.46322 19.2825 9.87206C19.3533 9.95476 19.3818 10.042 19.3836 10.108C19.3852 10.1655 19.3684 10.2195 19.3145 10.2733C19.2815 10.3063 19.206 10.3448 19.1121 10.347C19.022 10.3491 18.9854 10.3182 18.9766 10.3079L18.9763 10.3076C17.8094 8.94532 16.3281 7.9387 14.5964 7.40772Z" fill="#344050" stroke="#04DBA2" stroke-width="1.2"/>
<path d="M25.8854 9.59249C24.4054 5.02593 20.3829 1.46777 15.5726 0.744904C10.1774 -0.0656832 4.70759 2.57436 2.12232 7.38936L2.1223 7.38939C-0.460005 12.1981 0.296872 18.2522 3.98357 22.2816C7.62067 26.2565 13.5592 27.5501 18.5301 25.4715L18.5302 25.4715C23.4477 23.4156 26.7143 18.3842 26.4979 13.0551C26.4897 12.8543 26.4764 12.6533 26.4583 12.4522C26.4063 12.4726 26.3538 12.4901 26.3014 12.5045C26.167 12.5416 26.0236 12.5626 25.8774 12.5628C26.2249 17.145 23.9424 21.6914 19.955 24.1008C15.5503 26.7636 9.72135 26.4095 5.72339 23.1181C1.67718 19.7873 0.129132 14.2192 1.91046 9.28503L25.8854 9.59249ZM25.8854 9.59249C25.7815 9.5971 25.6773 9.61277 25.5747 9.64079L25.5725 9.64143C25.4822 9.66649 25.3978 9.69811 25.3192 9.73543M25.8854 9.59249L25.3192 9.73543M25.3192 9.73543C25.2723 9.5873 25.2227 9.43975 25.1702 9.29285L25.1701 9.2925C23.4464 4.4762 18.6891 1.18383 13.5941 1.16817M25.3192 9.73543L1.91048 9.28498C3.66415 4.42605 8.45105 1.15148 13.5941 1.16817M13.5941 1.16817L13.5922 1.76817M13.5941 1.16817L13.5922 1.76817M13.5922 1.76817C8.69736 1.75228 4.1406 4.87327 2.47483 9.48872L13.5922 1.76817ZM25.6962 11.204C25.675 11.0887 25.6946 10.9904 25.7295 10.9249C25.7604 10.8667 25.8085 10.8216 25.8921 10.7981C25.9457 10.7838 26.0404 10.7892 26.1312 10.8378C26.2149 10.8826 26.2384 10.9313 26.2438 10.9534C26.2443 10.9557 26.2447 10.9581 26.2452 10.9604C26.2462 10.9658 26.2472 10.9711 26.2483 10.9764C26.267 11.0839 26.241 11.1515 26.2053 11.2011C26.1602 11.2637 26.0804 11.3207 25.9823 11.3478C25.8826 11.3753 25.8099 11.3602 25.7761 11.3431C25.7607 11.3353 25.7194 11.3145 25.6962 11.204Z" fill="#344050" stroke="#04DBA2" stroke-width="1.2"/>
</svg>
