<svg width="107" height="28" viewBox="0 0 107 28" fill="none" xmlns="http://www.w3.org/2000/svg">
<path d="M0.144531 0H9.78446C12.2666 0 14.219 0.565879 15.6402 1.69492C17.0615 2.82532 17.7714 4.26241 17.7714 6.00347V7.37949C17.7714 8.65645 17.5249 9.69321 17.0344 10.4911C16.5426 11.2891 15.6727 11.9079 14.4249 12.3462V12.5063C15.9654 12.9053 17.1062 13.6435 17.85 14.721C18.5939 15.7985 18.9651 17.0822 18.9651 18.5709V20.9646C18.9651 22.973 18.2551 24.5757 16.8339 25.7726C15.4126 26.9695 13.4616 27.5679 10.9781 27.5679H6.33902C4.25386 27.5679 2.70118 26.9695 1.67825 25.7726C0.655319 24.577 0.144531 23.0409 0.144531 21.1655V0ZM6.61812 11.3311H8.6694C9.49316 11.3311 10.1367 10.9987 10.6015 10.3337C11.0662 9.66879 11.2979 8.88443 11.2979 7.97929V6.40379C11.2979 5.50001 11.0648 4.74822 10.6015 4.14978C10.1367 3.55133 9.49316 3.25143 8.6694 3.25143H6.61812V11.3311ZM12.4942 18.1733C12.4942 16.8705 12.1623 15.8867 11.4984 15.2204C10.8345 14.5554 9.97143 14.223 8.90921 14.223H6.61812V20.7665C6.61812 21.9363 6.84032 22.8211 7.28607 23.4195C7.73047 24.018 8.45804 24.3179 9.46742 24.3179C10.5567 24.3179 11.3331 24.0193 11.7978 23.4195C12.2625 22.8211 12.4942 21.9363 12.4942 20.7665V18.1733Z" fill="#04DBA2"/>
<path d="M22.1523 3.11684V0.697266H26.9784C27.8997 0.697266 28.6463 1.44499 28.6463 2.36776V4.78733H23.8202C22.8989 4.78733 22.1523 4.03961 22.1523 3.11684ZM28.6449 11.1653V27.569H26.1492C23.9421 27.569 22.1523 25.7764 22.1523 23.5658V7.16077H24.648C26.8551 7.16077 28.6449 8.95339 28.6449 11.164V11.1653Z" fill="#04DBA2"/>
<path d="M42.3187 23.6283C42.5504 23.8075 42.866 23.897 43.2644 23.897H49.6973V27.5474H36.2881C34.2924 27.5474 32.9985 25.4386 33.9008 23.6555L39.2201 13.144C39.5385 12.5849 39.6983 12.133 39.6983 11.787C39.6848 11.4816 39.529 11.2387 39.2309 11.0582C38.9315 10.8791 38.5169 10.7896 37.9858 10.7896H31.9512V7.13916H45.3604C47.3561 7.13916 48.65 9.24797 47.7477 11.0311L42.4284 21.5426C42.1222 22.0881 41.9705 22.5332 41.9705 22.8793C41.9705 23.1982 42.087 23.4479 42.3187 23.627V23.6283Z" fill="#04DBA2"/>
<path d="M52.4883 3.11684V0.697266H57.3143C58.2357 0.697266 58.9822 1.44499 58.9822 2.36776V4.78733H54.1561C53.2348 4.78733 52.4883 4.03961 52.4883 3.11684ZM58.9808 11.1653V27.569H56.4852C54.2781 27.569 52.4883 25.7764 52.4883 23.5658V7.16077H54.984C57.1911 7.16077 58.9808 8.95339 58.9808 11.164V11.1653Z" fill="#04DBA2"/>
<path d="M106.631 13.5649V27.5694H100.158V13.3654C100.158 12.3287 99.9585 11.5769 99.5601 11.1114C99.1618 10.646 98.6307 10.4139 97.9668 10.4139C97.3029 10.4139 96.8382 10.5808 96.5726 10.9119V27.5694H90.0801V7.16113H97.7676C101.233 7.16113 103.576 7.79351 104.798 9.05554C106.02 10.3189 106.63 11.8225 106.63 13.5636L106.631 13.5649Z" fill="#04DBA2"/>
<path d="M79.1744 3.76995C81.7242 2.7861 83.9733 3.52704 84.5722 3.74688C84.9326 4.86099 85.4081 6.9888 84.4773 9.05826C82.9558 12.4373 78.5985 13.6138 75.7492 13.645C75.7249 13.645 75.6639 13.645 75.5785 13.645C74.9228 13.6423 68.7174 13.531 66.7529 9.62957C65.5619 7.26564 66.486 4.61808 66.8572 3.69938C67.6728 3.48904 69.0982 3.24071 70.804 3.58132C73.5137 4.12141 75.1016 5.80141 75.672 6.43785C76.0934 5.85433 77.2504 4.51359 79.1744 3.7713M75.611 0.547016C69.8352 1.14411 66.1906 2.25958 64.8777 2.7169C64.5377 2.83496 64.2762 3.105 64.1732 3.45105C64.0296 3.93686 63.8142 4.70358 63.6177 5.75527C63.3521 7.17879 63.2546 9.04198 63.4172 11.1101C67.0821 12.1903 70.491 13.8472 73.572 16.0496C75.5704 17.4786 77.4157 19.1382 79.0673 20.9784L87.7385 12.3694C88.206 8.29833 87.3226 4.87049 86.885 3.47819C86.7739 3.124 86.4961 2.85396 86.1411 2.74811C84.1413 2.15509 77.4049 0.359747 75.6097 0.545659L75.611 0.547016Z" fill="#04DBA2"/>
<path d="M65.56 18.7649C66.8675 19.2412 68.1275 19.8424 69.3279 20.5698C71.3954 21.8196 73.2218 23.3951 74.7623 25.2542L76.1632 23.8632C74.494 21.8874 72.5715 20.1572 70.4416 18.7161C68.5082 17.4079 66.438 16.3548 64.2539 15.5664C64.5777 16.6235 65.0059 17.6983 65.56 18.7663" fill="#04DBA2"/>
<path d="M66.7048 20.6891C68.752 23.7031 71.2883 25.5866 73.28 26.7252L74.3151 25.6965C72.8126 23.8727 71.0268 22.3298 69.004 21.1057C68.0475 20.5276 67.053 20.031 66.0273 19.6157C66.2373 19.9753 66.4636 20.3322 66.7048 20.6891Z" fill="#04DBA2"/>
<path d="M73.851 27.0402C73.851 27.0402 73.8632 27.0469 73.8686 27.0497C74.8495 27.5708 76.0201 27.587 77.0241 27.1121C79.223 26.0726 82.575 23.9977 85.0273 20.1248C86.4567 17.8694 87.2276 15.5597 87.5935 13.3926L73.8496 27.0388L73.851 27.0402Z" fill="#04DBA2"/>
<path d="M64.0427 14.8296C66.43 15.6493 68.69 16.7742 70.7914 18.1964C72.9551 19.6606 74.9088 21.4166 76.6078 23.4209L78.6239 21.4193C76.9967 19.6023 75.1785 17.967 73.2085 16.5585C70.2535 14.4442 66.9882 12.8443 63.4805 11.7817C63.5875 12.7629 63.7663 13.7861 64.0427 14.8296Z" fill="#04DBA2"/>
<path d="M69.502 6.73638C69.502 7.50174 70.1225 8.12461 70.888 8.12461C71.6535 8.12461 72.274 7.5031 72.274 6.73638C72.274 5.96966 71.6535 5.34814 70.888 5.34814C70.1225 5.34814 69.502 5.96966 69.502 6.73638Z" fill="#04DBA2"/>
<mask id="mask0_1503_206" style="mask-type:luminance" maskUnits="userSpaceOnUse" x="69" y="5" width="4" height="4">
<path d="M69.502 6.73638C69.502 7.50174 70.1225 8.12461 70.888 8.12461C71.6535 8.12461 72.274 7.5031 72.274 6.73638C72.274 5.96966 71.6535 5.34814 70.888 5.34814C70.1225 5.34814 69.502 5.96966 69.502 6.73638Z" fill="white"/>
</mask>
<g mask="url(#mask0_1503_206)">
<path d="M69.6557 4.71367L68.8691 7.97021L72.1205 8.75806L72.9071 5.50151L69.6557 4.71367Z" fill="#04DBA2"/>
</g>
<path d="M79.498 6.73638C79.498 7.50174 80.1186 8.12461 80.8841 8.12461C81.6496 8.12461 82.2701 7.5031 82.2701 6.73638C82.2701 5.96966 81.6496 5.34814 80.8841 5.34814C80.1186 5.34814 79.498 5.96966 79.498 6.73638Z" fill="#04DBA2"/>
<mask id="mask1_1503_206" style="mask-type:luminance" maskUnits="userSpaceOnUse" x="79" y="5" width="4" height="4">
<path d="M79.498 6.73638C79.498 7.50174 80.1186 8.12461 80.8841 8.12461C81.6496 8.12461 82.2701 7.5031 82.2701 6.73638C82.2701 5.96966 81.6496 5.34814 80.8841 5.34814C80.1186 5.34814 79.498 5.96966 79.498 6.73638Z" fill="white"/>
</mask>
<g mask="url(#mask1_1503_206)">
<path d="M79.6518 4.71367L78.8652 7.97021L82.1166 8.75806L82.9032 5.50151L79.6518 4.71367Z" fill="#04DBA2"/>
</g>
<path d="M75.0697 9.33625C75.2608 9.64022 75.4518 9.94419 75.6428 10.2482C75.8122 9.94419 75.9829 9.64022 76.1523 9.33625C76.1509 8.71337 75.8379 8.29541 75.6103 8.29541C75.3827 8.29541 75.0711 8.71337 75.0684 9.33625" fill="#04DBA2"/>
<mask id="mask2_1503_206" style="mask-type:luminance" maskUnits="userSpaceOnUse" x="75" y="8" width="2" height="3">
<path d="M75.0697 9.33625C75.2608 9.64022 75.4518 9.94419 75.6428 10.2482C75.8122 9.94419 75.9829 9.64022 76.1523 9.33625C76.1509 8.71337 75.8379 8.29541 75.6103 8.29541C75.3827 8.29541 75.0711 8.71337 75.0684 9.33625" fill="white"/>
</mask>
<g mask="url(#mask2_1503_206)">
<path d="M75.1303 8.04922L74.625 10.1411L76.0933 10.4969L76.5986 8.40501L75.1303 8.04922Z" fill="#04DBA2"/>
</g>
</svg>
